<mxfile host="app.diagrams.net" modified="2022-11-03T00:03:21.585Z" agent="5.0 (Windows NT 10.0; Win64; x64) AppleWebKit/537.36 (KHTML, like Gecko) Chrome/106.0.0.0 Safari/537.36" etag="T3ruu00i35mRDcjeGRWO" version="20.5.1" type="github">
  <diagram id="sZvj67ekZa8oSoAsuiMy" name="페이지-1">
    <mxGraphModel dx="1865" dy="1748" grid="1" gridSize="10" guides="1" tooltips="1" connect="1" arrows="1" fold="1" page="1" pageScale="1" pageWidth="827" pageHeight="1169" math="0" shadow="0">
      <root>
        <mxCell id="0" />
        <mxCell id="1" parent="0" />
        <mxCell id="xdhu19Yfi1Sl70du63Xw-10" value="" style="rounded=1;whiteSpace=wrap;html=1;strokeColor=#0000CC;strokeWidth=3;" vertex="1" parent="1">
          <mxGeometry x="60" y="-1140" width="690" height="560" as="geometry" />
        </mxCell>
        <mxCell id="xdhu19Yfi1Sl70du63Xw-11" value="" style="rounded=1;whiteSpace=wrap;html=1;strokeColor=#FF0019;strokeWidth=3;" vertex="1" parent="1">
          <mxGeometry x="90" y="-1060" width="630" height="400" as="geometry" />
        </mxCell>
        <mxCell id="xdhu19Yfi1Sl70du63Xw-14" value="" style="rounded=1;whiteSpace=wrap;html=1;strokeColor=#00FF00;strokeWidth=3;fillColor=#FFFFFF;" vertex="1" parent="1">
          <mxGeometry x="120" y="-1040" width="180" height="340" as="geometry" />
        </mxCell>
        <mxCell id="xdhu19Yfi1Sl70du63Xw-15" value="히스토리" style="rounded=1;whiteSpace=wrap;html=1;strokeColor=#000000;strokeWidth=3;fillColor=#FFFFFF;" vertex="1" parent="1">
          <mxGeometry x="142" y="-1020" width="138" height="190" as="geometry" />
        </mxCell>
        <mxCell id="xdhu19Yfi1Sl70du63Xw-16" value="코멘트" style="rounded=1;whiteSpace=wrap;html=1;strokeColor=#000000;strokeWidth=3;fillColor=#FFFFFF;" vertex="1" parent="1">
          <mxGeometry x="152" y="-820" width="118" height="40" as="geometry" />
        </mxCell>
        <mxCell id="xdhu19Yfi1Sl70du63Xw-17" value="등록" style="rounded=1;whiteSpace=wrap;html=1;strokeColor=#000000;strokeWidth=3;fillColor=#FFFFFF;" vertex="1" parent="1">
          <mxGeometry x="210" y="-760" width="60" height="30" as="geometry" />
        </mxCell>
        <mxCell id="xdhu19Yfi1Sl70du63Xw-21" value="" style="rounded=1;whiteSpace=wrap;html=1;strokeColor=#00FF00;strokeWidth=3;fillColor=#FFFFFF;" vertex="1" parent="1">
          <mxGeometry x="340" y="-1040" width="340" height="340" as="geometry" />
        </mxCell>
        <mxCell id="xdhu19Yfi1Sl70du63Xw-34" value="" style="rounded=1;whiteSpace=wrap;html=1;strokeColor=#FF9933;strokeWidth=3;fillColor=#FFFFFF;" vertex="1" parent="1">
          <mxGeometry x="360" y="-1020" width="290" height="60" as="geometry" />
        </mxCell>
        <mxCell id="xdhu19Yfi1Sl70du63Xw-22" value="저의 MBTI는... ISFP입니다!" style="rounded=1;whiteSpace=wrap;html=1;strokeColor=#000000;strokeWidth=3;fillColor=#FFFFFF;align=left;" vertex="1" parent="1">
          <mxGeometry x="370" y="-1010" width="160" height="30" as="geometry" />
        </mxCell>
        <mxCell id="xdhu19Yfi1Sl70du63Xw-23" value="자기소개" style="rounded=1;whiteSpace=wrap;html=1;strokeColor=#000000;strokeWidth=3;fillColor=#FFFFFF;align=left;" vertex="1" parent="1">
          <mxGeometry x="370" y="-920" width="270" height="60" as="geometry" />
        </mxCell>
        <mxCell id="xdhu19Yfi1Sl70du63Xw-24" value="장점,협업스타일" style="rounded=1;whiteSpace=wrap;html=1;strokeColor=#000000;strokeWidth=3;fillColor=#FFFFFF;align=left;" vertex="1" parent="1">
          <mxGeometry x="369" y="-830" width="270" height="60" as="geometry" />
        </mxCell>
        <mxCell id="xdhu19Yfi1Sl70du63Xw-25" value="블로그" style="rounded=1;whiteSpace=wrap;html=1;strokeColor=#000000;strokeWidth=3;fillColor=#FFFFFF;align=left;" vertex="1" parent="1">
          <mxGeometry x="370" y="-750" width="200" height="20" as="geometry" />
        </mxCell>
        <mxCell id="xdhu19Yfi1Sl70du63Xw-30" value="파란색frame&lt;br&gt;flex/column" style="whiteSpace=wrap;html=1;strokeColor=#0000CC;strokeWidth=3;fillColor=#FFFFFF;" vertex="1" parent="1">
          <mxGeometry x="-90" y="-1110" width="120" height="60" as="geometry" />
        </mxCell>
        <mxCell id="xdhu19Yfi1Sl70du63Xw-31" value="빨간색 row" style="whiteSpace=wrap;html=1;strokeColor=#FF0019;strokeWidth=3;fillColor=#FFFFFF;" vertex="1" parent="1">
          <mxGeometry x="-90" y="-1010" width="120" height="60" as="geometry" />
        </mxCell>
        <mxCell id="xdhu19Yfi1Sl70du63Xw-32" value="초록색 column" style="whiteSpace=wrap;html=1;strokeColor=#00FF00;strokeWidth=3;fillColor=#FFFFFF;" vertex="1" parent="1">
          <mxGeometry x="-90" y="-920" width="120" height="60" as="geometry" />
        </mxCell>
        <mxCell id="xdhu19Yfi1Sl70du63Xw-33" value="이미지" style="rounded=1;whiteSpace=wrap;html=1;strokeColor=#1A1A1A;strokeWidth=3;fillColor=#FFFFFF;" vertex="1" parent="1">
          <mxGeometry x="580" y="-1011.25" width="40" height="42.5" as="geometry" />
        </mxCell>
        <mxCell id="xdhu19Yfi1Sl70du63Xw-35" value="주황색 row&lt;span style=&quot;white-space: pre;&quot;&gt;	&lt;/span&gt;" style="whiteSpace=wrap;html=1;strokeColor=#FF9933;strokeWidth=3;fillColor=#FFFFFF;" vertex="1" parent="1">
          <mxGeometry x="-90" y="-830" width="120" height="60" as="geometry" />
        </mxCell>
        <mxCell id="xdhu19Yfi1Sl70du63Xw-36" value="" style="rounded=1;whiteSpace=wrap;html=1;strokeColor=#000000;strokeWidth=3;fillColor=#FFFFFF;" vertex="1" parent="1">
          <mxGeometry x="369" y="-940" width="90" height="10" as="geometry" />
        </mxCell>
        <mxCell id="xdhu19Yfi1Sl70du63Xw-37" value="" style="rounded=1;whiteSpace=wrap;html=1;strokeColor=#000000;strokeWidth=3;fillColor=#FFFFFF;" vertex="1" parent="1">
          <mxGeometry x="369" y="-850" width="90" height="10" as="geometry" />
        </mxCell>
      </root>
    </mxGraphModel>
  </diagram>
</mxfile>
